# xmcd
#
# Track frame offsets:
#	150
#	16444
#	34552
#	52695
#	71051
#	87086
#	103342
#	128351
#	145443
#	167630
#	186844
#
# Disc length: 2750 seconds
# Revision: 1
# Processed by: cddbd v1.5.2PL0 Copyright (c) Steve Scherf et al.
# Submitted via: dBpowerAMP V12.0
#
DISCID=8c0abc0b
DTITLE=The Hardin Draw - Burn This Town
DYEAR=2014
DGENRE=Country
TTITLE0=Southern Queen
TTITLE1=California
TTITLE2=Home
TTITLE3=Blood Bath
TTITLE4=Land Locked
TTITLE5=Long Black Train
TTITLE6=Little Arkansas
TTITLE7=The Lord's Prayer
TTITLE8=Run
TTITLE9=Open Road
TTITLE10=Judas
EXTD=
EXTT0=
EXTT1=
EXTT2=
EXTT3=
EXTT4=
EXTT5=
EXTT6=
EXTT7=
EXTT8=
EXTT9=
EXTT10=
PLAYORDER=
